# xmcd
#
# Track frame offsets:
#	215
#	13213
#	28375
#	59318
#	73568
#	95942
#	118437
#	138101
#	157466
#	181544
#	205333
#	223271
#	249113
#	260570
#
# Disc length: 3813 seconds
#
# Revision: 0
# Processed by: cddbd v1.4PL0 Copyright (c) Steve Scherf et al.
# Submitted via: EasyCDDAExtractor 4.6.9.1
#
DISCID=dc0ee30e
DTITLE=Jane Crowe and  Blues Inc. - Electric Blue Echoes
DYEAR=2002
DGENRE=Blues
TTITLE0=I'm All Right
TTITLE1=Big Boss Man
TTITLE2=Rock Me
TTITLE3=Closer To You
TTITLE4=Born With The Right
TTITLE5=Good Morning Little School Boy
TTITLE6=Back For More
TTITLE7=Carousel
TTITLE8=Little Red Rooster
TTITLE9=Free Me Momma
TTITLE10=Feel It
TTITLE11=Nothin' To Do
TTITLE12=Rearrange
TTITLE13=Turning Blue
EXTD=
EXTT0=
EXTT1=
EXTT2=
EXTT3=
EXTT4=
EXTT5=
EXTT6=
EXTT7=
EXTT8=
EXTT9=
EXTT10=
EXTT11=
EXTT12=
EXTT13=
PLAYORDER=
